<?xml version="1.0" encoding="UTF-8" standalone="no"?><!DOCTYPE svg PUBLIC "-//W3C//DTD SVG 1.1//EN" "http://www.w3.org/Graphics/SVG/1.1/DTD/svg11.dtd"><svg width="100%" height="100%" viewBox="0 0 470 406" version="1.1" xmlns="http://www.w3.org/2000/svg" xmlns:xlink="http://www.w3.org/1999/xlink" xml:space="preserve" xmlns:serif="http://www.serif.com/" style="fill-rule:evenodd;clip-rule:evenodd;stroke-linecap:round;stroke-linejoin:round;stroke-miterlimit:1.5;"><g><path d="M18.75,68.241c5.745,37.698 2.78,76.628 7.861,114.521c3.677,27.42 13.925,54.335 22.209,80.607c5.433,17.23 12.102,32.248 24.837,44.983c2.76,2.76 9.249,8.563 13.886,7.514c15.175,-3.432 27.479,-26.599 35.06,-38.042c26.635,-40.204 24.85,-88.354 24.85,-134.597c-0,-17.438 -2.584,-34.002 -4.472,-51.059c-0.656,-5.929 -1.726,-11.823 -2.441,-17.724c-0.242,-2.001 0.314,-4.13 -0,-6.12c-0.087,-0.554 -0.382,-2.205 -0.21,-1.671c2.317,7.197 1.746,15.11 3.049,22.415c2.72,15.245 6.368,30.325 9.974,45.347c7.612,31.702 22.711,61.2 34.325,91.555c4.135,10.808 9.276,20.901 14.459,31.228c2.548,5.077 4.589,10.214 7.282,15.238c7.491,13.981 11.372,16.432 23.831,6.244c3.095,-2.53 5.603,-5.451 8.32,-8.329c5.728,-6.067 10.453,-10.546 15.079,-17.227c7.817,-11.289 15.178,-23.482 19.306,-36.699c5.977,-19.136 10.207,-38.487 12.266,-58.405c2.083,-20.157 4.501,-40.133 3.37,-60.451c-0.87,-15.64 -5.875,-32.281 -5.875,-47.536" style="fill:none;stroke:#000;stroke-width:37.5px;"/><path d="M418.632,22.516c-2.471,-4.943 -26.084,-3.599 -31.848,-3.599c-42.587,-0 -64.502,10.163 -93.223,41.727c-13.748,15.11 -18.527,37.692 -19.695,57.539c-2.66,45.168 9.468,88.775 30.656,128.502c7.9,14.813 16.413,32.579 29.169,43.736c11.329,9.909 25.215,6.205 38.717,2.565c33.487,-9.027 45.764,-47.977 39.436,-79.384c-4.898,-24.31 -23.397,-45.34 -43.011,-59.727c-6.973,-5.115 -14.47,-8.662 -22.042,-12.774c-2.284,-1.24 -4.518,-2.415 -6.824,-3.567c-0.988,-0.495 -4.167,-1.273 -3.061,-1.273c15.502,-0 31.346,1.646 46.88,2.377c7.998,0.377 16.117,0.833 24.15,1.502c5.719,0.477 13.381,1.089 19.159,1.665c15.783,1.572 20.442,-0.747 22.279,14.898c0.648,5.524 0.751,5.3 0.751,10.999c-0,9.344 0.399,9.024 0.802,18.138c0.473,10.704 -0,21.595 -0,32.307c-0,18.902 -0.134,37.689 -0.888,56.565c-0.833,20.838 -1.668,41.56 -3.212,62.354c-1.233,16.614 -7.17,33.54 -7.17,50.012" style="fill:none;stroke:#000;stroke-width:37.5px;"/></g></svg>