<?xml version="1.0" encoding="UTF-8" standalone="no"?><!DOCTYPE svg PUBLIC "-//W3C//DTD SVG 1.1//EN" "http://www.w3.org/Graphics/SVG/1.1/DTD/svg11.dtd"><svg width="100%" height="100%" viewBox="0 0 512 512" version="1.1" xmlns="http://www.w3.org/2000/svg" xmlns:xlink="http://www.w3.org/1999/xlink" xml:space="preserve" xmlns:serif="http://www.serif.com/" style="fill-rule:evenodd;clip-rule:evenodd;stroke-linecap:round;stroke-linejoin:round;stroke-miterlimit:1.5;"><rect x="0" y="0" width="512" height="512"/><path d="M35.028,132.741c5.744,37.697 2.779,76.627 7.861,114.52c3.677,27.42 13.924,54.335 22.208,80.607c5.433,17.23 12.103,32.249 24.837,44.983c2.76,2.76 9.249,8.564 13.886,7.515c15.175,-3.433 27.479,-26.599 35.06,-38.042c26.635,-40.204 24.85,-88.355 24.85,-134.597c0,-17.438 -2.583,-34.003 -4.471,-51.059c-0.657,-5.93 -1.727,-11.823 -2.441,-17.724c-0.243,-2.002 0.313,-4.13 -0,-6.121c-0.088,-0.554 -0.382,-2.205 -0.21,-1.671c2.316,7.197 1.745,15.11 3.049,22.416c2.719,15.244 6.367,30.324 9.974,45.346c7.612,31.702 22.71,61.2 34.325,91.555c4.135,10.808 9.276,20.901 14.458,31.228c2.548,5.077 4.59,10.214 7.282,15.238c7.492,13.982 11.373,16.433 23.832,6.245c3.095,-2.531 5.602,-5.452 8.319,-8.329c5.729,-6.067 10.453,-10.547 15.08,-17.228c7.816,-11.288 15.177,-23.482 19.305,-36.699c5.977,-19.136 10.208,-38.486 12.266,-58.404c2.084,-20.158 4.502,-40.134 3.371,-60.451c-0.871,-15.64 -5.875,-32.282 -5.875,-47.536" style="fill:none;stroke:#fff;stroke-width:37.5px;"/><path d="M434.91,87.016c-2.472,-4.944 -26.085,-3.6 -31.849,-3.6c-42.586,0 -64.501,10.163 -93.222,41.728c-13.748,15.109 -18.527,37.691 -19.696,57.539c-2.66,45.167 9.469,88.775 30.657,128.502c7.9,14.813 16.413,32.578 29.169,43.735c11.328,9.909 25.214,6.206 38.716,2.566c33.487,-9.028 45.764,-47.978 39.437,-79.385c-4.898,-24.31 -23.397,-45.34 -43.011,-59.727c-6.973,-5.115 -14.471,-8.662 -22.043,-12.773c-2.283,-1.24 -4.518,-2.415 -6.823,-3.568c-0.989,-0.494 -4.167,-1.273 -3.062,-1.273c15.502,-0 31.346,1.646 46.88,2.377c7.998,0.377 16.117,0.834 24.15,1.503c5.719,0.476 13.382,1.088 19.16,1.664c15.782,1.572 20.441,-0.747 22.278,14.898c0.649,5.525 0.751,5.301 0.751,10.999c0,9.344 0.399,9.025 0.802,18.138c0.474,10.704 0,21.595 0,32.307c0,18.902 -0.133,37.689 -0.888,56.565c-0.832,20.838 -1.668,41.56 -3.211,62.354c-1.233,16.614 -7.17,33.54 -7.17,50.012" style="fill:none;stroke:#fff;stroke-width:37.5px;"/></svg>